<svg xmlns="http://www.w3.org/2000/svg" xmlns:xlink="http://www.w3.org/1999/xlink" width="1080" zoomAndPan="magnify" viewBox="0 0 810 809.999993" height="1080" preserveAspectRatio="xMidYMid meet" version="1.0"><defs><g/><clipPath id="d104de8e4e"><rect x="0" width="437" y="0" height="142"/></clipPath><clipPath id="0e2205a089"><rect x="0" width="308" y="0" height="239"/></clipPath></defs><g transform="matrix(1, 0, 0, 1, 175, 306)"><g clip-path="url(#d104de8e4e)"><g fill="#ffffff" fill-opacity="1"><g transform="translate(1.263998, 112.367853)"><g><path d="M 62.234375 -42.140625 L 82.4375 -42.140625 L 82.4375 -8.65625 C 77.8125 -5.34375 72.5 -2.800781 66.5 -1.03125 C 60.5 0.726562 54.492188 1.609375 48.484375 1.609375 C 40.023438 1.609375 32.40625 -0.175781 25.625 -3.75 C 18.851562 -7.332031 13.539062 -12.316406 9.6875 -18.703125 C 5.84375 -25.085938 3.921875 -32.320312 3.921875 -40.40625 C 3.921875 -48.488281 5.84375 -55.722656 9.6875 -62.109375 C 13.539062 -68.503906 18.890625 -73.488281 25.734375 -77.0625 C 32.585938 -80.644531 40.328125 -82.4375 48.953125 -82.4375 C 56.492188 -82.4375 63.265625 -81.164062 69.265625 -78.625 C 75.273438 -76.082031 80.28125 -72.425781 84.28125 -67.65625 L 69.734375 -54.5 C 64.265625 -60.5 57.722656 -63.5 50.109375 -63.5 C 43.179688 -63.5 37.597656 -61.398438 33.359375 -57.203125 C 29.128906 -53.015625 27.015625 -47.414062 27.015625 -40.40625 C 27.015625 -35.945312 27.972656 -31.960938 29.890625 -28.453125 C 31.816406 -24.953125 34.507812 -22.21875 37.96875 -20.25 C 41.4375 -18.289062 45.40625 -17.3125 49.875 -17.3125 C 54.257812 -17.3125 58.378906 -18.195312 62.234375 -19.96875 Z M 62.234375 -42.140625 "/></g></g></g><g fill="#ffffff" fill-opacity="1"><g transform="translate(92.816225, 112.367853)"><g><path d="M 84.96875 -80.8125 L 84.96875 0 L 62.109375 0 L 62.109375 -31.515625 L 30.9375 -31.515625 L 30.9375 0 L 8.078125 0 L 8.078125 -80.8125 L 30.9375 -80.8125 L 30.9375 -50.453125 L 62.109375 -50.453125 L 62.109375 -80.8125 Z M 84.96875 -80.8125 "/></g></g></g><g fill="#ffffff" fill-opacity="1"><g transform="translate(188.524664, 112.367853)"><g><path d="M 62.234375 -15.703125 L 28.0625 -15.703125 L 21.703125 0 L -1.609375 0 L 34.0625 -80.8125 L 56.578125 -80.8125 L 92.359375 0 L 68.578125 0 Z M 55.53125 -32.5625 L 45.140625 -58.421875 L 34.75 -32.5625 Z M 55.53125 -32.5625 "/></g></g></g><g fill="#ffffff" fill-opacity="1"><g transform="translate(281.924082, 112.367853)"><g><path d="M 76.4375 -18.125 L 76.4375 0 L 4.046875 0 L 4.046875 -14.3125 L 44.796875 -62.6875 L 5.078125 -62.6875 L 5.078125 -80.8125 L 74.703125 -80.8125 L 74.703125 -66.5 L 33.9375 -18.125 Z M 76.4375 -18.125 "/></g></g></g><g fill="#ffffff" fill-opacity="1"><g transform="translate(362.970341, 112.367853)"><g><path d="M 8.078125 -80.8125 L 30.9375 -80.8125 L 30.9375 -18.125 L 69.5 -18.125 L 69.5 0 L 8.078125 0 Z M 8.078125 -80.8125 "/></g></g></g></g></g><g transform="matrix(1, 0, 0, 1, 335, 280)"><g clip-path="url(#0e2205a089)"><g fill="#3fc5cd" fill-opacity="1"><g transform="translate(0.0723304, 171.233219)"><g><path d="M 54.859375 0 C 54.859375 4.257812 54.109375 7.835938 52.609375 10.734375 C 51.117188 13.628906 49.066406 15.898438 46.453125 17.546875 C 43.847656 19.203125 40.859375 20.394531 37.484375 21.125 C 34.117188 21.863281 30.5625 22.234375 26.8125 22.234375 C 21.082031 22.234375 16.515625 21.179688 13.109375 19.078125 C 9.710938 16.984375 7.265625 14.1875 5.765625 10.6875 C 4.273438 7.1875 3.53125 3.335938 3.53125 -0.859375 C 3.53125 -3.785156 4.242188 -6.425781 5.671875 -8.78125 C 7.109375 -11.132812 9 -13.007812 11.34375 -14.40625 C 13.695312 -15.800781 16.304688 -16.5 19.171875 -16.5 C 21.335938 -16.5 23.40625 -15.972656 25.375 -14.921875 C 27.34375 -13.878906 28.960938 -12.4375 30.234375 -10.59375 C 31.515625 -8.75 32.21875 -6.550781 32.34375 -4 L 25.375 -6.578125 C 23.78125 -7.148438 22.191406 -7.4375 20.609375 -7.4375 C 17.679688 -7.4375 15.039062 -6.578125 12.6875 -4.859375 C 10.332031 -3.148438 8.835938 -0.800781 8.203125 2.1875 C 7.753906 4.226562 7.753906 6.3125 8.203125 8.4375 C 8.648438 10.570312 9.476562 12.53125 10.6875 14.3125 C 11.894531 16.09375 13.335938 17.519531 15.015625 18.59375 C 16.703125 19.675781 18.535156 20.21875 20.515625 20.21875 C 23.242188 20.21875 25.785156 19.582031 28.140625 18.3125 C 30.492188 17.039062 32.578125 15.335938 34.390625 13.203125 C 36.203125 11.078125 37.613281 8.691406 38.625 6.046875 C 39.644531 3.410156 40.15625 0.726562 40.15625 -2 L 40.15625 -57.8125 C 40.15625 -59.144531 40.710938 -60.253906 41.828125 -61.140625 C 42.941406 -62.035156 44.3125 -62.722656 45.9375 -63.203125 C 47.5625 -63.679688 49.195312 -64.015625 50.84375 -64.203125 C 52.5 -64.390625 53.835938 -64.484375 54.859375 -64.484375 Z M 54.859375 0 "/></g></g></g><g fill="#3fc5cd" fill-opacity="1"><g transform="translate(62.562254, 126.870106)"><g><path d="M 14.03125 -22.984375 C 13.957031 -20.703125 13.171875 -18.8125 11.671875 -17.3125 C 10.179688 -15.820312 8.296875 -15.078125 6.015625 -15.078125 C 3.722656 -15.078125 1.75 -15.804688 0.09375 -17.265625 C -2.320312 -19.867188 -3.53125 -22.890625 -3.53125 -26.328125 C -3.53125 -29.253906 -2.6875 -31.625 -1 -33.4375 C 0.6875 -35.25 2.832031 -36.742188 5.4375 -37.921875 C 8.039062 -39.097656 10.648438 -40.164062 13.265625 -41.125 C 17.460938 -42.707031 20.414062 -44.054688 22.125 -45.171875 C 23.84375 -46.285156 24.832031 -47.539062 25.09375 -48.9375 C 25.21875 -48.488281 25.296875 -48.070312 25.328125 -47.6875 C 25.359375 -47.3125 25.375 -46.867188 25.375 -46.359375 L 25.375 -44.75 C 25.375 -42.394531 24.878906 -40.421875 23.890625 -38.828125 C 22.910156 -37.234375 21.609375 -35.941406 19.984375 -34.953125 C 18.359375 -33.972656 16.59375 -33.148438 14.6875 -32.484375 C 12.78125 -31.816406 10.875 -31.226562 8.96875 -30.71875 C 4.957031 -29.570312 2.1875 -28.519531 0.65625 -27.5625 C -0.863281 -26.613281 -1.65625 -25.441406 -1.71875 -24.046875 C -1.71875 -22.773438 -1.238281 -21.597656 -0.28125 -20.515625 C 0.664062 -19.429688 1.804688 -18.890625 3.140625 -18.890625 C 4.035156 -18.890625 5.226562 -19.144531 6.71875 -19.65625 C 8.21875 -20.164062 9.664062 -20.753906 11.0625 -21.421875 C 12.46875 -22.085938 13.457031 -22.609375 14.03125 -22.984375 Z M 14.03125 -22.984375 "/></g></g></g><g fill="#3fc5cd" fill-opacity="1"><g transform="translate(58.459861, 171.233219)"><g><path d="M 25.953125 -44.546875 C 25.953125 -42.191406 25.125 -40.203125 23.46875 -38.578125 C 21.8125 -36.960938 19.773438 -36.15625 17.359375 -36.15625 C 15.003906 -36.15625 13.015625 -36.960938 11.390625 -38.578125 C 9.773438 -40.203125 8.96875 -42.191406 8.96875 -44.546875 C 8.96875 -46.960938 9.773438 -48.953125 11.390625 -50.515625 C 13.015625 -52.078125 15.003906 -52.859375 17.359375 -52.859375 C 19.773438 -52.859375 21.8125 -52.078125 23.46875 -50.515625 C 25.125 -48.953125 25.953125 -46.960938 25.953125 -44.546875 Z M 23.1875 7.34375 C 23.1875 10.082031 22.707031 12.390625 21.75 14.265625 C 20.789062 16.140625 19.582031 17.664062 18.125 18.84375 C 16.664062 20.019531 15.15625 20.925781 13.59375 21.5625 C 12.03125 22.195312 10.613281 22.640625 9.34375 22.890625 C 8.070312 23.148438 7.179688 23.3125 6.671875 23.375 C 6.992188 23.1875 7.394531 22.675781 7.875 21.84375 C 8.351562 21.019531 8.59375 19.460938 8.59375 17.171875 L 8.484375 -23.84375 C 8.484375 -25.3125 9.039062 -26.488281 10.15625 -27.375 C 11.269531 -28.269531 12.632812 -28.9375 14.25 -29.375 C 15.875 -29.820312 17.515625 -30.140625 19.171875 -30.328125 C 20.828125 -30.523438 22.195312 -30.625 23.28125 -30.625 L 23.1875 -1.328125 L 29.28125 -1.328125 L 29.28125 0 L 23.1875 0 Z M 23.1875 7.34375 "/></g></g></g><g fill="#3fc5cd" fill-opacity="1"><g transform="translate(86.890373, 171.233219)"><g><path d="M -0.953125 -1.328125 L 21.078125 -1.328125 L 21.078125 0 L -0.953125 0 Z M -0.953125 -1.328125 "/></g></g></g><g fill="#3fc5cd" fill-opacity="1"><g transform="translate(107.116123, 171.233219)"><g><path d="M -0.953125 -1.328125 L 21.078125 -1.328125 L 21.078125 0 L -0.953125 0 Z M -0.953125 -1.328125 "/></g></g></g><g fill="#3fc5cd" fill-opacity="1"><g transform="translate(127.341873, 171.233219)"><g><path d="M -0.953125 -1.328125 L 21.078125 -1.328125 L 21.078125 0 L -0.953125 0 Z M -0.953125 -1.328125 "/></g></g></g><g fill="#3fc5cd" fill-opacity="1"><g transform="translate(147.567623, 171.233219)"><g><path d="M -0.953125 -1.328125 L 21.078125 -1.328125 L 21.078125 0 L -0.953125 0 Z M -0.953125 -1.328125 "/></g></g></g><g fill="#3fc5cd" fill-opacity="1"><g transform="translate(167.793373, 171.233219)"><g><path d="M -0.953125 -1.328125 L 21.078125 -1.328125 L 21.078125 0 L -0.953125 0 Z M -0.953125 -1.328125 "/></g></g></g><g fill="#3fc5cd" fill-opacity="1"><g transform="translate(188.019123, 171.233219)"><g><path d="M -0.953125 -1.328125 L 21.078125 -1.328125 L 21.078125 0 L -0.953125 0 Z M -0.953125 -1.328125 "/></g></g></g><g fill="#3fc5cd" fill-opacity="1"><g transform="translate(208.244873, 171.233219)"><g><path d="M 13.265625 -11.25 C 10.910156 -10.113281 8.492188 -9.066406 6.015625 -8.109375 C 3.535156 -7.148438 1.148438 -6.671875 -1.140625 -6.671875 C -2.285156 -6.671875 -3.382812 -6.8125 -4.4375 -7.09375 C -5.488281 -7.382812 -6.488281 -7.847656 -7.4375 -8.484375 C -6.488281 -8.804688 -5.457031 -9.269531 -4.34375 -9.875 C -3.226562 -10.476562 -1.78125 -11.351562 0 -12.5 L 0.859375 -13.0625 C 3.460938 -14.71875 6.179688 -16.289062 9.015625 -17.78125 C 11.847656 -19.28125 14.597656 -20.03125 17.265625 -20.03125 C 18.535156 -20.03125 19.804688 -19.789062 21.078125 -19.3125 C 22.347656 -18.84375 23.523438 -18.035156 24.609375 -16.890625 C 24.734375 -16.828125 24.875 -16.726562 25.03125 -16.59375 C 25.195312 -16.46875 25.3125 -16.34375 25.375 -16.21875 C 26.007812 -15.644531 26.613281 -14.945312 27.1875 -14.125 C 26.363281 -14.625 25.347656 -14.875 24.140625 -14.875 C 23.054688 -14.875 21.71875 -14.617188 20.125 -14.109375 C 18.539062 -13.609375 16.253906 -12.65625 13.265625 -11.25 Z M 13.265625 -11.25 "/></g></g><g transform="translate(208.244873, 171.233219)"><g><path d="M -0.953125 -1.328125 L 21.078125 -1.328125 L 21.078125 0 L -0.953125 0 Z M -0.953125 -1.328125 "/></g></g></g><g fill="#3fc5cd" fill-opacity="1"><g transform="translate(228.470623, 171.233219)"><g><path d="M -0.953125 -1.328125 L 21.078125 -1.328125 L 21.078125 0 L -0.953125 0 Z M -0.953125 -1.328125 "/></g></g></g><g fill="#3fc5cd" fill-opacity="1"><g transform="translate(248.696373, 171.233219)"><g><path d="M 40.265625 -51.421875 C 40.265625 -49.066406 39.453125 -47.078125 37.828125 -45.453125 C 36.203125 -43.835938 34.179688 -43.03125 31.765625 -43.03125 C 29.347656 -43.03125 27.328125 -43.835938 25.703125 -45.453125 C 24.085938 -47.078125 23.28125 -49.066406 23.28125 -51.421875 C 23.28125 -53.835938 24.085938 -55.835938 25.703125 -57.421875 C 27.328125 -59.015625 29.347656 -59.8125 31.765625 -59.8125 C 34.179688 -59.8125 36.203125 -59.015625 37.828125 -57.421875 C 39.453125 -55.835938 40.265625 -53.835938 40.265625 -51.421875 Z M 19.359375 -1.328125 L 40.734375 -1.328125 L 40.734375 0 L -0.859375 0 L -0.859375 -1.328125 L 11.828125 -1.328125 C 11.128906 -2.671875 10.523438 -4.265625 10.015625 -6.109375 C 9.503906 -7.953125 9.101562 -9.84375 8.8125 -11.78125 C 8.53125 -13.71875 8.390625 -15.453125 8.390625 -16.984375 C 8.390625 -19.648438 8.882812 -22.238281 9.875 -24.75 C 10.863281 -27.269531 12.375 -29.546875 14.40625 -31.578125 C 16.25 -33.421875 18.078125 -34.722656 19.890625 -35.484375 C 21.703125 -36.253906 23.5 -36.640625 25.28125 -36.640625 C 27.695312 -36.640625 30.050781 -36.128906 32.34375 -35.109375 C 34.632812 -34.085938 36.859375 -32.910156 39.015625 -31.578125 C 41.179688 -30.242188 43.296875 -29.066406 45.359375 -28.046875 C 47.429688 -27.023438 49.421875 -26.515625 51.328125 -26.515625 C 52.910156 -26.515625 54.375 -26.960938 55.71875 -27.859375 C 55.207031 -26.960938 54.632812 -26.210938 54 -25.609375 C 53.363281 -25.003906 52.820312 -24.484375 52.375 -24.046875 C 50.207031 -21.878906 48.125 -20.347656 46.125 -19.453125 C 44.125 -18.566406 42.203125 -18.125 40.359375 -18.125 C 38.003906 -18.125 35.773438 -18.664062 33.671875 -19.75 C 31.578125 -20.832031 29.609375 -22.054688 27.765625 -23.421875 C 25.921875 -24.785156 24.15625 -26.007812 22.46875 -27.09375 C 20.78125 -28.175781 19.175781 -28.71875 17.65625 -28.71875 C 16 -28.71875 14.566406 -28.046875 13.359375 -26.703125 C 12.148438 -25.367188 11.226562 -23.8125 10.59375 -22.03125 C 9.957031 -20.25 9.640625 -18.660156 9.640625 -17.265625 C 9.640625 -14.910156 9.957031 -12.492188 10.59375 -10.015625 C 11.226562 -7.535156 12.257812 -5.46875 13.6875 -3.8125 C 15.125 -2.15625 17.015625 -1.328125 19.359375 -1.328125 Z M 19.359375 -1.328125 "/></g></g></g></g></g></svg>