<svg xmlns="http://www.w3.org/2000/svg" xmlns:xlink="http://www.w3.org/1999/xlink" width="1080" zoomAndPan="magnify" viewBox="0 0 810 809.999993" height="1080" preserveAspectRatio="xMidYMid meet" version="1.0"><defs><g/><clipPath id="0bad9b58f6"><rect x="0" width="247" y="0" height="810"/></clipPath><clipPath id="b7782b3036"><rect x="0" width="392" y="0" height="679"/></clipPath><clipPath id="d495f15747"><rect x="0" width="127" y="0" height="669"/></clipPath><clipPath id="a5fa728c92"><rect x="0" width="112" y="0" height="391"/></clipPath><clipPath id="6e854f0814"><path d="M 380 0 L 674.160156 0 L 674.160156 808 L 380 808 Z M 380 0 " clip-rule="nonzero"/></clipPath><clipPath id="be293c2480"><rect x="0" width="295" y="0" height="808"/></clipPath><clipPath id="40dbedda56"><rect x="0" width="322" y="0" height="506"/></clipPath><clipPath id="033f8d8742"><rect x="0" width="675" y="0" height="810"/></clipPath></defs><g transform="matrix(1, 0, 0, 1, 0, 0.000000000000039746)"><g clip-path="url(#033f8d8742)"><g transform="matrix(1, 0, 0, 1, 160, 0.000000000000039746)"><g clip-path="url(#0bad9b58f6)"><g fill="#ffffff" fill-opacity="1"><g transform="translate(0.32294, 541.802825)"><g><path d="M 230.46875 0 C 230.46875 17.90625 227.328125 32.9375 221.046875 45.09375 C 214.765625 57.25 206.144531 66.800781 195.1875 73.75 C 184.238281 80.695312 171.679688 85.707031 157.515625 88.78125 C 143.359375 91.851562 128.394531 93.390625 112.625 93.390625 C 88.582031 93.390625 69.410156 88.976562 55.109375 80.15625 C 40.816406 71.34375 30.53125 59.585938 24.25 44.890625 C 17.96875 30.191406 14.828125 14.023438 14.828125 -3.609375 C 14.828125 -15.898438 17.832031 -26.988281 23.84375 -36.875 C 29.851562 -46.757812 37.800781 -54.640625 47.6875 -60.515625 C 57.582031 -66.398438 68.539062 -69.34375 80.5625 -69.34375 C 89.644531 -69.34375 98.328125 -67.132812 106.609375 -62.71875 C 114.898438 -58.3125 121.71875 -52.234375 127.0625 -44.484375 C 132.40625 -36.734375 135.34375 -27.515625 135.875 -16.828125 L 106.609375 -27.65625 C 99.929688 -30.0625 93.253906 -31.265625 86.578125 -31.265625 C 74.285156 -31.265625 63.195312 -27.65625 53.3125 -20.4375 C 43.425781 -13.226562 37.144531 -3.34375 34.46875 9.21875 C 32.59375 17.769531 32.59375 26.519531 34.46875 35.46875 C 36.34375 44.425781 39.816406 52.644531 44.890625 60.125 C 49.960938 67.601562 56.039062 73.613281 63.125 78.15625 C 70.207031 82.695312 77.890625 84.96875 86.171875 84.96875 C 97.660156 84.96875 108.347656 82.296875 118.234375 76.953125 C 128.117188 71.609375 136.867188 64.457031 144.484375 55.5 C 152.109375 46.550781 158.054688 36.53125 162.328125 25.4375 C 166.597656 14.351562 168.734375 3.066406 168.734375 -8.421875 L 168.734375 -242.890625 C 168.734375 -248.503906 171.070312 -253.179688 175.75 -256.921875 C 180.425781 -260.660156 186.171875 -263.53125 192.984375 -265.53125 C 199.796875 -267.539062 206.675781 -268.945312 213.625 -269.75 C 220.570312 -270.550781 226.1875 -270.953125 230.46875 -270.953125 Z M 230.46875 0 "/></g></g></g></g></g><g transform="matrix(1, 0, 0, 1, 0, 13)"><g clip-path="url(#b7782b3036)"><g fill="#ffffff" fill-opacity="1"><g transform="translate(210.282323, 487.122657)"><g><path d="M 25.1875 -83.28125 C 28.945312 -76.625 29.179688 -70.707031 25.890625 -65.53125 C 22.609375 -60.363281 18.128906 -56.175781 12.453125 -52.96875 L -26 -31.234375 C -29.082031 -29.492188 -32.398438 -29.113281 -35.953125 -30.09375 C -39.515625 -31.082031 -42.164062 -33.113281 -43.90625 -36.1875 L -49.828125 -46.65625 C -51.015625 -48.757812 -50.847656 -50.9375 -49.328125 -53.1875 C -47.816406 -55.4375 -45.859375 -57.5625 -43.453125 -59.5625 C -41.054688 -61.5625 -39.125 -62.972656 -37.65625 -63.796875 L -30.78125 -51.640625 C -27.75 -46.273438 -27.28125 -41.078125 -29.375 -36.046875 L -20.125 -41.28125 C -15.09375 -44.125 -13.90625 -47.898438 -16.5625 -52.609375 L -24 -65.75 C -25.1875 -67.863281 -25.019531 -70.039062 -23.5 -72.28125 C -21.988281 -74.53125 -20.035156 -76.65625 -17.640625 -78.65625 C -15.253906 -80.65625 -13.328125 -82.070312 -11.859375 -82.90625 L -3.046875 -67.328125 C -0.015625 -61.960938 0.375 -56.722656 -1.875 -51.609375 L 8.09375 -57.234375 C 13.125 -60.078125 14.3125 -63.851562 11.65625 -68.5625 L 0.234375 -88.765625 C -0.960938 -90.878906 -0.804688 -93.054688 0.703125 -95.296875 C 2.222656 -97.535156 4.207031 -99.617188 6.65625 -101.546875 C 9.113281 -103.472656 11.070312 -104.847656 12.53125 -105.671875 Z M 25.1875 -83.28125 "/></g></g></g></g></g><g transform="matrix(1, 0, 0, 1, 369, 0.000000000000039746)"><g clip-path="url(#d495f15747)"><g fill="#ffffff" fill-opacity="1"><g transform="translate(0.982954, 387.677804)"><g><path d="M 109.015625 -187.171875 C 109.015625 -177.285156 105.539062 -168.9375 98.59375 -162.125 C 91.644531 -155.3125 83.097656 -151.90625 72.953125 -151.90625 C 63.066406 -151.90625 54.710938 -155.3125 47.890625 -162.125 C 41.078125 -168.9375 37.671875 -177.285156 37.671875 -187.171875 C 37.671875 -197.328125 41.078125 -205.742188 47.890625 -212.421875 C 54.710938 -219.109375 63.066406 -222.453125 72.953125 -222.453125 C 83.097656 -222.453125 91.644531 -219.109375 98.59375 -212.421875 C 105.539062 -205.742188 109.015625 -197.328125 109.015625 -187.171875 Z M 97.390625 30.859375 C 97.390625 42.347656 95.382812 52.035156 91.375 59.921875 C 87.375 67.804688 82.300781 74.21875 76.15625 79.15625 C 70.007812 84.101562 63.660156 87.910156 57.109375 90.578125 C 50.566406 93.253906 44.625 95.125 39.28125 96.1875 C 33.9375 97.257812 30.195312 97.929688 28.0625 98.203125 C 29.394531 97.398438 31.0625 95.257812 33.0625 91.78125 C 35.070312 88.3125 36.078125 81.765625 36.078125 72.140625 L 35.671875 -100.203125 C 35.671875 -106.347656 38.007812 -111.289062 42.6875 -115.03125 C 47.363281 -118.769531 53.109375 -121.570312 59.921875 -123.4375 C 66.734375 -125.3125 73.613281 -126.648438 80.5625 -127.453125 C 87.507812 -128.253906 93.253906 -128.65625 97.796875 -128.65625 Z M 97.390625 30.859375 "/></g></g></g></g></g><g transform="matrix(1, 0, 0, 1, 336, 0.000000000000039746)"><g clip-path="url(#a5fa728c92)"><g fill="#ffffff" fill-opacity="1"><g transform="translate(33.982923, 235.14395)"><g><path d="M 32.65625 -53.53125 C 32.507812 -48.195312 30.691406 -43.789062 27.203125 -40.3125 C 23.722656 -36.832031 19.320312 -35.09375 14 -35.09375 C 8.664062 -35.09375 4.070312 -36.796875 0.21875 -40.203125 C -5.40625 -46.273438 -8.21875 -53.3125 -8.21875 -61.3125 C -8.21875 -68.125 -6.253906 -73.640625 -2.328125 -77.859375 C 1.585938 -82.078125 6.582031 -85.554688 12.65625 -88.296875 C 18.726562 -91.035156 24.800781 -93.515625 30.875 -95.734375 C 40.644531 -99.441406 47.53125 -102.585938 51.53125 -105.171875 C 55.53125 -107.765625 57.828125 -110.691406 58.421875 -113.953125 C 58.710938 -112.910156 58.894531 -111.945312 58.96875 -111.0625 C 59.050781 -110.175781 59.09375 -109.140625 59.09375 -107.953125 L 59.09375 -104.171875 C 59.09375 -98.691406 57.941406 -94.101562 55.640625 -90.40625 C 53.347656 -86.707031 50.3125 -83.707031 46.53125 -81.40625 C 42.757812 -79.113281 38.648438 -77.1875 34.203125 -75.625 C 29.765625 -74.070312 25.320312 -72.707031 20.875 -71.53125 C 11.550781 -68.863281 5.109375 -66.414062 1.546875 -64.1875 C -2.003906 -61.96875 -3.851562 -59.226562 -4 -55.96875 C -4 -53.007812 -2.882812 -50.269531 -0.65625 -47.75 C 1.5625 -45.238281 4.222656 -43.984375 7.328125 -43.984375 C 9.398438 -43.984375 12.175781 -44.570312 15.65625 -45.75 C 19.132812 -46.9375 22.503906 -48.304688 25.765625 -49.859375 C 29.023438 -51.421875 31.320312 -52.644531 32.65625 -53.53125 Z M 32.65625 -53.53125 "/></g></g></g></g></g><g clip-path="url(#6e854f0814)"><g transform="matrix(1, 0, 0, 1, 380, 0.000000000000039746)"><g clip-path="url(#be293c2480)"><g fill="#ffffff" fill-opacity="1"><g transform="translate(1.089486, 548.236976)"><g><path d="M 220.5625 -232.75 C 220.5625 -223.632812 217.421875 -215.9375 211.140625 -209.65625 C 204.859375 -203.375 197.035156 -200.234375 187.671875 -200.234375 C 178.316406 -200.234375 170.5 -203.375 164.21875 -209.65625 C 157.9375 -215.9375 154.796875 -223.632812 154.796875 -232.75 C 154.796875 -242.101562 157.9375 -249.859375 164.21875 -256.015625 C 170.5 -262.179688 178.316406 -265.265625 187.671875 -265.265625 C 197.035156 -265.265625 204.859375 -262.179688 211.140625 -256.015625 C 217.421875 -249.859375 220.5625 -242.101562 220.5625 -232.75 Z M 165.515625 102.703125 C 151.722656 109.109375 137.617188 115.144531 123.203125 120.8125 C 108.796875 126.476562 95.066406 129.3125 82.015625 129.3125 C 67.734375 129.3125 55.421875 125.738281 45.078125 118.59375 C 34.734375 111.445312 26.726562 101.960938 21.0625 90.140625 C 15.394531 78.316406 12.5625 65.507812 12.5625 51.71875 C 12.5625 34.226562 16.929688 18.957031 25.671875 5.90625 C 34.421875 -7.144531 46.179688 -17.425781 60.953125 -24.9375 C 75.734375 -32.445312 92.238281 -36.816406 110.46875 -38.046875 C 107.757812 -43.222656 105.414062 -49.378906 103.4375 -56.515625 C 101.46875 -63.660156 99.925781 -70.925781 98.8125 -78.3125 C 97.707031 -85.707031 97.15625 -91.988281 97.15625 -97.15625 C 97.15625 -106.269531 98.753906 -115.503906 101.953125 -124.859375 C 105.160156 -134.222656 109.71875 -142.785156 115.625 -150.546875 C 121.539062 -158.304688 128.5625 -164.523438 136.6875 -169.203125 C 144.820312 -173.878906 153.691406 -176.21875 163.296875 -176.21875 C 170.191406 -176.21875 177.703125 -174.617188 185.828125 -171.421875 C 193.953125 -168.222656 204.789062 -162.679688 218.34375 -154.796875 C 226.21875 -150.117188 233.910156 -145.929688 241.421875 -142.234375 C 248.941406 -138.535156 256.269531 -136.6875 263.40625 -136.6875 C 269.320312 -136.6875 274.988281 -138.289062 280.40625 -141.5 C 278.6875 -138.789062 276.898438 -136.390625 275.046875 -134.296875 C 273.203125 -132.203125 271.414062 -130.414062 269.6875 -128.9375 L 268.578125 -127.828125 C 261.679688 -121.421875 254.476562 -115.753906 246.96875 -110.828125 C 239.457031 -105.898438 230.773438 -103.4375 220.921875 -103.4375 C 211.078125 -103.4375 201.78125 -105.960938 193.03125 -111.015625 C 184.289062 -116.066406 175.976562 -121.300781 168.09375 -126.71875 C 161.9375 -131.394531 155.84375 -135.457031 149.8125 -138.90625 C 143.78125 -142.351562 137.929688 -144.078125 132.265625 -144.078125 C 125.117188 -144.078125 119.328125 -141.367188 114.890625 -135.953125 C 110.460938 -130.535156 107.203125 -124.007812 105.109375 -116.375 C 103.015625 -108.738281 101.96875 -101.472656 101.96875 -94.578125 C 101.96875 -87.429688 103.195312 -79.488281 105.65625 -70.75 C 108.125 -62.007812 112.128906 -54.5 117.671875 -48.21875 C 123.210938 -41.9375 130.539062 -38.796875 139.65625 -38.796875 L 222.40625 -38.796875 L 222.40625 -33.625 L 109.71875 -33.625 C 97.894531 -33.625 86.441406 -31.34375 75.359375 -26.78125 C 64.273438 -22.226562 54.421875 -16.070312 45.796875 -8.3125 C 37.179688 -0.550781 30.285156 8.4375 25.109375 18.65625 C 19.941406 28.875 17.359375 39.773438 17.359375 51.359375 C 17.359375 58.253906 18.46875 65.457031 20.6875 72.96875 C 22.90625 80.476562 26.476562 86.816406 31.40625 91.984375 C 36.332031 97.160156 42.613281 99.75 50.25 99.75 C 57.382812 99.75 65.570312 97.53125 74.8125 93.09375 C 84.050781 88.664062 93.84375 83.617188 104.1875 77.953125 C 123.394531 67.117188 138.910156 59.546875 150.734375 55.234375 C 162.554688 50.921875 173.269531 48.765625 182.875 48.765625 C 192.96875 48.765625 201.957031 50.609375 209.84375 54.296875 C 217.726562 57.992188 225.117188 63.414062 232.015625 70.5625 L 233.125 71.671875 C 235.582031 73.890625 237.859375 76.101562 239.953125 78.3125 C 242.046875 80.53125 243.957031 83.117188 245.6875 86.078125 C 240.507812 83.117188 234.71875 81.640625 228.3125 81.640625 C 219.695312 81.640625 210.03125 83.734375 199.3125 87.921875 C 188.601562 92.109375 177.335938 97.035156 165.515625 102.703125 Z M 165.515625 102.703125 "/></g></g></g></g></g></g><g transform="matrix(1, 0, 0, 1, 338, 0.000000000000039746)"><g clip-path="url(#40dbedda56)"><g fill="#ffffff" fill-opacity="1"><g transform="translate(179.800038, 322.173554)"><g><path d="M 24.734375 -39.953125 C 19.640625 -35.046875 14.300781 -30.335938 8.71875 -25.828125 C 3.132812 -21.316406 -2.597656 -18.109375 -8.484375 -16.203125 C -11.429688 -15.253906 -14.375 -14.710938 -17.3125 -14.578125 C -20.25 -14.453125 -23.203125 -14.8125 -26.171875 -15.65625 C -23.984375 -17.257812 -21.710938 -19.300781 -19.359375 -21.78125 C -17.003906 -24.257812 -14.007812 -27.703125 -10.375 -32.109375 L -8.640625 -34.296875 C -3.304688 -40.722656 2.367188 -47.03125 8.390625 -53.21875 C 14.421875 -59.40625 20.867188 -63.609375 27.734375 -65.828125 C 31.003906 -66.878906 34.472656 -67.320312 38.140625 -67.15625 C 41.804688 -66.988281 45.507812 -65.882812 49.25 -63.84375 C 49.625 -63.78125 50.066406 -63.648438 50.578125 -63.453125 C 51.085938 -63.265625 51.484375 -63.035156 51.765625 -62.765625 C 53.878906 -61.804688 56.007812 -60.507812 58.15625 -58.875 C 55.613281 -59.488281 52.785156 -59.289062 49.671875 -58.28125 C 46.898438 -57.382812 43.675781 -55.625 40 -53 C 36.332031 -50.375 31.242188 -46.023438 24.734375 -39.953125 Z M 24.734375 -39.953125 "/></g></g></g></g></g></g></g></svg>