<svg xmlns="http://www.w3.org/2000/svg" xmlns:xlink="http://www.w3.org/1999/xlink" width="1080" zoomAndPan="magnify" viewBox="0 0 810 809.999993" height="1080" preserveAspectRatio="xMidYMid meet" version="1.0"><defs><g/><clipPath id="fb060b5844"><rect x="0" width="693" y="0" height="537"/></clipPath></defs><g transform="matrix(1, 0, 0, 1, 59, 95)"><g clip-path="url(#fb060b5844)"><g fill="#3fc5cd" fill-opacity="1"><g transform="translate(0.308613, 385.1016)"><g><path d="M 123.453125 0 C 123.453125 9.59375 121.769531 17.644531 118.40625 24.15625 C 115.039062 30.664062 110.425781 35.78125 104.5625 39.5 C 98.695312 43.226562 91.96875 45.914062 84.375 47.5625 C 76.789062 49.207031 68.773438 50.03125 60.328125 50.03125 C 47.453125 50.03125 37.179688 47.664062 29.515625 42.9375 C 21.859375 38.21875 16.347656 31.921875 12.984375 24.046875 C 9.617188 16.171875 7.9375 7.507812 7.9375 -1.9375 C 7.9375 -8.519531 9.546875 -14.457031 12.765625 -19.75 C 15.992188 -25.050781 20.253906 -29.273438 25.546875 -32.421875 C 30.847656 -35.566406 36.71875 -37.140625 43.15625 -37.140625 C 48.019531 -37.140625 52.671875 -35.957031 57.109375 -33.59375 C 61.546875 -31.238281 65.195312 -27.984375 68.0625 -23.828125 C 70.925781 -19.679688 72.5 -14.742188 72.78125 -9.015625 L 57.109375 -14.8125 C 53.535156 -16.101562 49.957031 -16.75 46.375 -16.75 C 39.789062 -16.75 33.847656 -14.816406 28.546875 -10.953125 C 23.253906 -7.085938 19.894531 -1.789062 18.46875 4.9375 C 17.46875 9.519531 17.46875 14.207031 18.46875 19 C 19.46875 23.789062 21.328125 28.191406 24.046875 32.203125 C 26.765625 36.210938 30.019531 39.429688 33.8125 41.859375 C 37.601562 44.296875 41.71875 45.515625 46.15625 45.515625 C 52.3125 45.515625 58.035156 44.082031 63.328125 41.21875 C 68.628906 38.351562 73.316406 34.523438 77.390625 29.734375 C 81.472656 24.941406 84.660156 19.570312 86.953125 13.625 C 89.242188 7.6875 90.390625 1.640625 90.390625 -4.515625 L 90.390625 -130.109375 C 90.390625 -133.117188 91.640625 -135.625 94.140625 -137.625 C 96.648438 -139.632812 99.726562 -141.175781 103.375 -142.25 C 107.03125 -143.320312 110.71875 -144.070312 114.4375 -144.5 C 118.15625 -144.925781 121.160156 -145.140625 123.453125 -145.140625 Z M 123.453125 0 "/></g></g></g><g fill="#3fc5cd" fill-opacity="1"><g transform="translate(140.939893, 285.264041)"><g><path d="M 31.5625 -51.75 C 31.414062 -46.59375 29.660156 -42.332031 26.296875 -38.96875 C 22.929688 -35.601562 18.675781 -33.921875 13.53125 -33.921875 C 8.375 -33.921875 3.9375 -35.566406 0.21875 -38.859375 C -5.21875 -44.734375 -7.9375 -51.535156 -7.9375 -59.265625 C -7.9375 -65.847656 -6.039062 -71.175781 -2.25 -75.25 C 1.539062 -79.332031 6.367188 -82.695312 12.234375 -85.34375 C 18.109375 -87.988281 23.976562 -90.382812 29.84375 -92.53125 C 39.289062 -96.113281 45.945312 -99.15625 49.8125 -101.65625 C 53.675781 -104.164062 55.894531 -106.992188 56.46875 -110.140625 C 56.75 -109.140625 56.925781 -108.207031 57 -107.34375 C 57.070312 -106.488281 57.109375 -105.488281 57.109375 -104.34375 L 57.109375 -100.703125 C 57.109375 -95.398438 56 -90.957031 53.78125 -87.375 C 51.5625 -83.800781 48.625 -80.90625 44.96875 -78.6875 C 41.320312 -76.46875 37.351562 -74.609375 33.0625 -73.109375 C 28.769531 -71.609375 24.476562 -70.285156 20.1875 -69.140625 C 11.164062 -66.554688 4.9375 -64.191406 1.5 -62.046875 C -1.9375 -59.898438 -3.722656 -57.253906 -3.859375 -54.109375 C -3.859375 -51.242188 -2.785156 -48.59375 -0.640625 -46.15625 C 1.503906 -43.726562 4.078125 -42.515625 7.078125 -42.515625 C 9.085938 -42.515625 11.773438 -43.085938 15.140625 -44.234375 C 18.503906 -45.378906 21.757812 -46.703125 24.90625 -48.203125 C 28.050781 -49.703125 30.269531 -50.882812 31.5625 -51.75 Z M 31.5625 -51.75 "/></g></g></g><g fill="#3fc5cd" fill-opacity="1"><g transform="translate(131.707609, 385.1016)"><g><path d="M 58.40625 -100.265625 C 58.40625 -94.972656 56.539062 -90.5 52.8125 -86.84375 C 49.09375 -83.195312 44.515625 -81.375 39.078125 -81.375 C 33.773438 -81.375 29.300781 -83.195312 25.65625 -86.84375 C 22.007812 -90.5 20.1875 -94.972656 20.1875 -100.265625 C 20.1875 -105.703125 22.007812 -110.175781 25.65625 -113.6875 C 29.300781 -117.195312 33.773438 -118.953125 39.078125 -118.953125 C 44.515625 -118.953125 49.09375 -117.195312 52.8125 -113.6875 C 56.539062 -110.175781 58.40625 -105.703125 58.40625 -100.265625 Z M 52.171875 16.53125 C 52.171875 22.6875 51.097656 27.875 48.953125 32.09375 C 46.804688 36.320312 44.085938 39.757812 40.796875 42.40625 C 37.503906 45.050781 34.101562 47.085938 30.59375 48.515625 C 27.082031 49.953125 23.894531 50.957031 21.03125 51.53125 C 18.175781 52.101562 16.175781 52.460938 15.03125 52.609375 C 15.75 52.171875 16.644531 51.019531 17.71875 49.15625 C 18.789062 47.300781 19.328125 43.796875 19.328125 38.640625 L 19.109375 -53.671875 C 19.109375 -56.960938 20.359375 -59.609375 22.859375 -61.609375 C 25.367188 -63.617188 28.445312 -65.125 32.09375 -66.125 C 35.75 -67.125 39.4375 -67.835938 43.15625 -68.265625 C 46.875 -68.703125 49.953125 -68.921875 52.390625 -68.921875 L 52.171875 -3 L 65.921875 -3 L 65.921875 0 L 52.171875 0 Z M 52.171875 16.53125 "/></g></g></g><g fill="#3fc5cd" fill-opacity="1"><g transform="translate(195.689432, 385.1016)"><g><path d="M -2.140625 -3 L 47.453125 -3 L 47.453125 0 L -2.140625 0 Z M -2.140625 -3 "/></g></g></g><g fill="#3fc5cd" fill-opacity="1"><g transform="translate(241.20674, 385.1016)"><g><path d="M -2.140625 -3 L 47.453125 -3 L 47.453125 0 L -2.140625 0 Z M -2.140625 -3 "/></g></g></g><g fill="#3fc5cd" fill-opacity="1"><g transform="translate(286.724048, 385.1016)"><g><path d="M -2.140625 -3 L 47.453125 -3 L 47.453125 0 L -2.140625 0 Z M -2.140625 -3 "/></g></g></g><g fill="#3fc5cd" fill-opacity="1"><g transform="translate(332.241357, 385.1016)"><g><path d="M -2.140625 -3 L 47.453125 -3 L 47.453125 0 L -2.140625 0 Z M -2.140625 -3 "/></g></g></g><g fill="#3fc5cd" fill-opacity="1"><g transform="translate(377.758665, 385.1016)"><g><path d="M -2.140625 -3 L 47.453125 -3 L 47.453125 0 L -2.140625 0 Z M -2.140625 -3 "/></g></g></g><g fill="#3fc5cd" fill-opacity="1"><g transform="translate(423.275973, 385.1016)"><g><path d="M -2.140625 -3 L 47.453125 -3 L 47.453125 0 L -2.140625 0 Z M -2.140625 -3 "/></g></g></g><g fill="#3fc5cd" fill-opacity="1"><g transform="translate(468.793282, 385.1016)"><g><path d="M 29.84375 -25.328125 C 24.550781 -22.753906 19.113281 -20.394531 13.53125 -18.25 C 7.945312 -16.101562 2.578125 -15.03125 -2.578125 -15.03125 C -5.148438 -15.03125 -7.617188 -15.351562 -9.984375 -16 C -12.347656 -16.644531 -14.601562 -17.679688 -16.75 -19.109375 C -14.601562 -19.828125 -12.273438 -20.863281 -9.765625 -22.21875 C -7.265625 -23.582031 -4.007812 -25.550781 0 -28.125 L 1.9375 -29.421875 C 7.800781 -33.140625 13.914062 -36.679688 20.28125 -40.046875 C 26.65625 -43.410156 32.847656 -45.09375 38.859375 -45.09375 C 41.722656 -45.09375 44.585938 -44.554688 47.453125 -43.484375 C 50.316406 -42.410156 52.960938 -40.582031 55.390625 -38 C 55.679688 -37.851562 56.003906 -37.632812 56.359375 -37.34375 C 56.710938 -37.0625 56.960938 -36.78125 57.109375 -36.5 C 58.546875 -35.207031 59.90625 -33.632812 61.1875 -31.78125 C 59.332031 -32.925781 57.046875 -33.5 54.328125 -33.5 C 51.890625 -33.5 48.878906 -32.925781 45.296875 -31.78125 C 41.722656 -30.632812 36.570312 -28.484375 29.84375 -25.328125 Z M 29.84375 -25.328125 "/></g></g><g transform="translate(468.793282, 385.1016)"><g><path d="M -2.140625 -3 L 47.453125 -3 L 47.453125 0 L -2.140625 0 Z M -2.140625 -3 "/></g></g></g><g fill="#3fc5cd" fill-opacity="1"><g transform="translate(514.31059, 385.1016)"><g><path d="M -2.140625 -3 L 47.453125 -3 L 47.453125 0 L -2.140625 0 Z M -2.140625 -3 "/></g></g></g><g fill="#3fc5cd" fill-opacity="1"><g transform="translate(559.827898, 385.1016)"><g><path d="M 90.609375 -115.734375 C 90.609375 -110.429688 88.78125 -105.953125 85.125 -102.296875 C 81.476562 -98.648438 76.9375 -96.828125 71.5 -96.828125 C 66.0625 -96.828125 61.515625 -98.648438 57.859375 -102.296875 C 54.210938 -105.953125 52.390625 -110.429688 52.390625 -115.734375 C 52.390625 -121.171875 54.210938 -125.675781 57.859375 -129.25 C 61.515625 -132.832031 66.0625 -134.625 71.5 -134.625 C 76.9375 -134.625 81.476562 -132.832031 85.125 -129.25 C 88.78125 -125.675781 90.609375 -121.171875 90.609375 -115.734375 Z M 43.578125 -3 L 91.6875 -3 L 91.6875 0 L -1.9375 0 L -1.9375 -3 L 26.625 -3 C 25.050781 -6.007812 23.691406 -9.585938 22.546875 -13.734375 C 21.398438 -17.890625 20.503906 -22.148438 19.859375 -26.515625 C 19.210938 -30.878906 18.890625 -34.78125 18.890625 -38.21875 C 18.890625 -44.226562 20 -50.0625 22.21875 -55.71875 C 24.4375 -61.375 27.835938 -66.488281 32.421875 -71.0625 C 36.566406 -75.21875 40.679688 -78.15625 44.765625 -79.875 C 48.847656 -81.59375 52.890625 -82.453125 56.890625 -82.453125 C 62.335938 -82.453125 67.632812 -81.304688 72.78125 -79.015625 C 77.9375 -76.722656 82.945312 -74.070312 87.8125 -71.0625 C 92.675781 -68.0625 97.4375 -65.414062 102.09375 -63.125 C 106.75 -60.832031 111.222656 -59.6875 115.515625 -59.6875 C 119.085938 -59.6875 122.378906 -60.6875 125.390625 -62.6875 C 124.242188 -60.6875 122.953125 -59.003906 121.515625 -57.640625 C 120.085938 -56.285156 118.875 -55.109375 117.875 -54.109375 C 113.007812 -49.242188 108.320312 -45.804688 103.8125 -43.796875 C 99.300781 -41.796875 94.972656 -40.796875 90.828125 -40.796875 C 85.523438 -40.796875 80.507812 -42.007812 75.78125 -44.4375 C 71.0625 -46.875 66.625 -49.628906 62.46875 -52.703125 C 58.320312 -55.785156 54.351562 -58.539062 50.5625 -60.96875 C 46.769531 -63.40625 43.15625 -64.625 39.71875 -64.625 C 36 -64.625 32.78125 -63.117188 30.0625 -60.109375 C 27.34375 -57.109375 25.265625 -53.601562 23.828125 -49.59375 C 22.398438 -45.582031 21.6875 -42.003906 21.6875 -38.859375 C 21.6875 -33.566406 22.398438 -28.128906 23.828125 -22.546875 C 25.265625 -16.960938 27.59375 -12.304688 30.8125 -8.578125 C 34.03125 -4.859375 38.285156 -3 43.578125 -3 Z M 43.578125 -3 "/></g></g></g></g></g></svg>